<?xml version="1.0" standalone="no"?>
<!DOCTYPE svg PUBLIC "-//W3C//DTD SVG 20010904//EN"
 "http://www.w3.org/TR/2001/REC-SVG-20010904/DTD/svg10.dtd">
<svg version="1.0" xmlns="http://www.w3.org/2000/svg"
 width="255.000000pt" height="247.000000pt" viewBox="0 0 255.000000 247.000000"
 preserveAspectRatio="xMidYMid meet">

<g transform="translate(0.000000,247.000000) scale(0.100000,-0.100000)"
fill="#000000" stroke="none">
<path d="M999 2026 c-163 -146 -307 -279 -320 -298 -20 -28 -24 -45 -24 -108
0 -63 4 -81 24 -111 34 -50 77 -77 140 -89 31 -6 241 -10 503 -10 496 0 490 1
528 -63 19 -31 20 -54 20 -510 0 -528 1 -518 -63 -557 -31 -19 -54 -20 -510
-20 -526 0 -513 -1 -559 62 -23 33 -23 35 -26 378 -4 395 0 430 56 493 70 77
66 77 515 77 l398 0 24 -25 25 -24 0 -386 0 -386 -25 -24 -24 -25 -386 0 -386
0 -24 25 -25 24 0 310 0 309 31 26 31 26 329 0 329 0 0 -285 0 -285 -285 0
-285 0 0 220 0 220 200 0 200 0 0 -160 0 -160 -130 0 -131 0 3 73 3 72 68 3
67 3 0 -36 c0 -33 2 -35 35 -35 l35 0 0 70 0 70 -140 0 -140 0 0 -145 0 -145
200 0 200 0 0 230 0 230 -270 0 -270 0 0 -290 0 -290 355 0 355 0 0 355 0 356
-379 -3 c-367 -3 -380 -4 -408 -24 -15 -11 -38 -36 -50 -54 -23 -32 -23 -37
-23 -355 0 -318 0 -322 23 -356 46 -69 46 -69 488 -69 395 0 396 0 430 23 69
46 69 47 69 482 0 435 0 436 -69 482 -34 23 -34 23 -441 23 -461 0 -465 -1
-549 -76 -29 -26 -58 -65 -72 -96 -24 -53 -24 -54 -24 -428 0 -404 2 -421 53
-482 14 -17 44 -39 67 -49 37 -17 76 -19 531 -19 l491 0 44 23 c24 13 58 43
74 66 l30 43 3 491 c2 332 0 504 -8 529 -14 50 -56 97 -105 119 -37 17 -76 19
-505 19 -284 0 -479 4 -502 10 -20 6 -50 26 -67 46 -25 28 -31 43 -31 82 0 27
7 57 16 70 8 12 139 133 290 268 l274 245 23 -18 c13 -10 141 -119 285 -243
374 -320 388 -300 -223 -300 -475 0 -465 -1 -465 40 0 4 86 81 191 170 151
128 195 160 209 154 25 -13 239 -188 239 -196 1 -5 -64 -8 -144 -8 -80 0 -145
4 -145 9 0 5 11 16 25 25 30 20 30 24 6 55 l-19 25 -71 -58 c-39 -32 -71 -62
-71 -67 0 -4 5 -20 12 -34 l11 -25 254 0 253 0 10 26 c6 14 10 29 10 34 0 9
-361 307 -377 312 -15 5 -438 -359 -451 -387 -13 -29 -8 -80 11 -106 28 -38
45 -39 517 -39 392 0 465 2 490 15 52 27 75 101 48 159 -10 24 -609 546 -625
546 -5 0 -141 -119 -304 -264z"/>
</g>
</svg>
